<svg xmlns="http://www.w3.org/2000/svg" xmlns:xlink="http://www.w3.org/1999/xlink" width="500" zoomAndPan="magnify" viewBox="0 0 375 374.999991" height="500" preserveAspectRatio="xMidYMid meet" version="1.0"><defs><clipPath id="8966c1a88f"><path d="M 109 133 L 262 133 L 262 247 L 109 247 Z M 109 133 " clip-rule="nonzero"/></clipPath><clipPath id="0b572a7f79"><path d="M 100.625 150.375 L 219.679688 95.121094 L 273.984375 212.132812 L 154.933594 267.386719 Z M 100.625 150.375 " clip-rule="nonzero"/></clipPath><clipPath id="c632f30452"><path d="M 100.625 150.375 L 219.679688 95.121094 L 273.984375 212.132812 L 154.933594 267.386719 Z M 100.625 150.375 " clip-rule="nonzero"/></clipPath><clipPath id="44a23f335e"><path d="M 209.125 156.765625 C 209.132812 156.78125 212.082031 161.851562 214.417969 162.101562 C 214.632812 162.121094 214.808594 162.253906 214.898438 162.429688 C 214.945312 162.515625 218.617188 169.523438 209.726562 176.703125 C 209.464844 176.914062 209.078125 176.871094 208.867188 176.609375 C 208.828125 176.5625 208.800781 176.511719 208.777344 176.457031 C 208.433594 175.746094 201.660156 162.410156 182.941406 176.753906 C 182.839844 176.832031 182.722656 176.875 182.601562 176.878906 L 182.601562 176.882812 C 182.511719 176.886719 150.878906 178.105469 148.089844 208.886719 C 148.058594 209.222656 147.761719 209.46875 147.425781 209.4375 C 147.144531 209.414062 146.921875 209.199219 146.878906 208.933594 C 146.710938 208.226562 144.402344 197.6875 151.769531 187.40625 C 146.28125 190.433594 133.546875 198.855469 134.25 211.5 C 134.269531 211.835938 134.011719 212.125 133.675781 212.144531 C 133.398438 212.160156 133.152344 211.988281 133.0625 211.738281 C 133.042969 211.675781 125.609375 191.390625 152.398438 174.328125 C 144.007812 178.308594 131.402344 186.289062 124.882812 200.261719 C 124.742188 200.566406 124.378906 200.699219 124.074219 200.554688 C 123.84375 200.449219 123.710938 200.214844 123.722656 199.976562 C 123.722656 199.917969 124.335938 182.808594 143.054688 170.871094 C 136.773438 173.535156 128.015625 178.125 121.398438 185.011719 C 121.164062 185.253906 120.777344 185.261719 120.53125 185.027344 C 120.316406 184.816406 120.289062 184.484375 120.453125 184.242188 C 120.484375 184.191406 131.574219 167.558594 150.242188 161.898438 C 141.476562 160.714844 116.9375 156.675781 109.410156 147.660156 C 109.195312 147.402344 109.230469 147.015625 109.488281 146.800781 C 109.648438 146.667969 109.851562 146.628906 110.035156 146.675781 C 110.128906 146.703125 140.964844 154.867188 161.3125 153.660156 C 156.03125 151.464844 143.695312 145.441406 136.359375 134.59375 C 136.171875 134.316406 136.246094 133.9375 136.523438 133.746094 C 136.746094 133.597656 137.03125 133.613281 137.234375 133.765625 C 138.042969 134.328125 165.234375 153.160156 188.878906 152.410156 C 188.898438 152.410156 188.917969 152.410156 188.9375 152.410156 C 188.953125 152.414062 195.078125 152.738281 191.171875 156.503906 C 188.765625 158.824219 179.90625 158.101562 176.027344 157.65625 C 178.566406 159.789062 184.539062 163.375 191.246094 157.296875 C 192.855469 155.835938 195.078125 156.320312 197.792969 156.910156 C 200.808594 157.5625 204.492188 158.363281 208.335938 156.523438 C 208.625 156.386719 208.96875 156.496094 209.125 156.765625 Z M 245.972656 177.285156 C 236.023438 178.171875 229.890625 180.101562 227.574219 183.070312 C 243.316406 185.398438 242.960938 175.109375 261.046875 183.421875 C 236.199219 177.867188 242.695312 194.820312 226.785156 187.855469 C 224.121094 186.746094 221.710938 186.441406 220.609375 187.703125 C 216.796875 192.066406 232.386719 195.253906 245.441406 192.113281 C 210.574219 202.867188 221.558594 181.992188 205.777344 182.105469 C 214.347656 179.34375 221.410156 184.8125 228.832031 177.480469 C 225.675781 178.960938 222.566406 179.5625 219.5 179.296875 C 227.96875 174.335938 236.789062 173.667969 245.972656 177.289062 Z M 177.238281 181.082031 C 177.589844 181.75 183.257812 192.289062 193.058594 193.351562 C 189.113281 190.722656 181.492188 184.070312 188.523438 175.238281 C 188.730469 174.972656 189.117188 174.929688 189.378906 175.140625 C 189.554688 175.277344 189.632812 175.492188 189.605469 175.699219 C 189.597656 175.75 187.066406 192.859375 204.539062 189.898438 C 204.871094 189.84375 205.1875 190.066406 205.242188 190.398438 C 205.25 190.441406 205.253906 190.484375 205.253906 190.527344 C 205.25 190.5625 204.90625 202.464844 188.441406 205.480469 C 188.109375 205.539062 187.789062 205.320312 187.730469 204.988281 C 187.707031 204.855469 187.726562 204.726562 187.78125 204.613281 L 189.625 200.203125 C 187.796875 199.519531 182.027344 197.589844 178.664062 199.03125 C 178.355469 199.164062 177.996094 199.023438 177.859375 198.710938 C 177.796875 198.5625 177.796875 198.398438 177.847656 198.257812 C 177.851562 198.242188 179.132812 194.734375 181.652344 193.5625 C 178.855469 192.617188 173.941406 191.578125 170.539062 194.328125 C 170.277344 194.539062 169.890625 194.496094 169.679688 194.230469 C 169.585938 194.113281 169.539062 193.96875 169.546875 193.828125 C 169.546875 193.550781 169.585938 191.367188 170.929688 189.480469 C 165.703125 191.976562 157.078125 199.414062 161.175781 220.820312 C 161.179688 220.828125 161.179688 220.839844 161.183594 220.851562 C 161.933594 224.46875 167.304688 233.476562 177.765625 239.148438 C 184.320312 242.703125 192.867188 244.921875 203.519531 243.652344 C 203.855469 243.613281 204.160156 243.851562 204.199219 244.1875 C 204.238281 244.496094 204.035156 244.78125 203.738281 244.855469 C 203.625 244.882812 163.5625 255.105469 153.351562 221.128906 C 153.347656 221.105469 153.339844 221.085938 153.335938 221.0625 C 153.308594 220.9375 153.269531 220.765625 153.222656 220.558594 C 150.0625 206.117188 155.1875 196.320312 161.449219 190.050781 C 167.691406 183.800781 175.113281 181.0625 176.507812 180.742188 L 176.511719 180.738281 L 176.542969 180.730469 C 176.835938 180.667969 177.125 180.820312 177.238281 181.082031 Z M 177.238281 181.082031 " clip-rule="nonzero"/></clipPath><linearGradient x1="8786.358912" gradientTransform="matrix(0.0180342, -0.00836998, 0.00836998, 0.0180342, 100.63505, 150.395966)" y1="6313.874689" x2="-2069.980258" gradientUnits="userSpaceOnUse" y2="-178.091501" id="9a23dbe3bb"><stop stop-opacity="1" stop-color="rgb(76.899719%, 23.498535%, 11.799622%)" offset="0"/><stop stop-opacity="1" stop-color="rgb(76.899719%, 23.498535%, 11.799622%)" offset="0.25"/><stop stop-opacity="1" stop-color="rgb(76.899719%, 23.498535%, 11.799622%)" offset="0.28125"/><stop stop-opacity="1" stop-color="rgb(76.899719%, 23.498535%, 11.799622%)" offset="0.296875"/><stop stop-opacity="1" stop-color="rgb(76.672363%, 23.498535%, 11.711121%)" offset="0.300781"/><stop stop-opacity="1" stop-color="rgb(76.446533%, 23.498535%, 11.624146%)" offset="0.304688"/><stop stop-opacity="1" stop-color="rgb(76.13678%, 23.498535%, 11.505127%)" offset="0.308594"/><stop stop-opacity="1" stop-color="rgb(75.828552%, 23.498535%, 11.386108%)" offset="0.3125"/><stop stop-opacity="1" stop-color="rgb(75.520325%, 23.498535%, 11.26709%)" offset="0.316406"/><stop stop-opacity="1" stop-color="rgb(75.212097%, 23.498535%, 11.148071%)" offset="0.320312"/><stop stop-opacity="1" stop-color="rgb(74.902344%, 23.498535%, 11.029053%)" offset="0.324219"/><stop stop-opacity="1" stop-color="rgb(74.594116%, 23.498535%, 10.910034%)" offset="0.328125"/><stop stop-opacity="1" stop-color="rgb(74.284363%, 23.498535%, 10.791016%)" offset="0.332031"/><stop stop-opacity="1" stop-color="rgb(73.976135%, 23.498535%, 10.671997%)" offset="0.335938"/><stop stop-opacity="1" stop-color="rgb(73.667908%, 23.498535%, 10.552979%)" offset="0.339844"/><stop stop-opacity="1" stop-color="rgb(73.35968%, 23.498535%, 10.43396%)" offset="0.34375"/><stop stop-opacity="1" stop-color="rgb(73.049927%, 23.498535%, 10.314941%)" offset="0.347656"/><stop stop-opacity="1" stop-color="rgb(72.741699%, 23.498535%, 10.195923%)" offset="0.351562"/><stop stop-opacity="1" stop-color="rgb(72.431946%, 23.498535%, 10.076904%)" offset="0.355469"/><stop stop-opacity="1" stop-color="rgb(72.123718%, 23.498535%, 9.957886%)" offset="0.359375"/><stop stop-opacity="1" stop-color="rgb(71.815491%, 23.498535%, 9.838867%)" offset="0.363281"/><stop stop-opacity="1" stop-color="rgb(71.507263%, 23.498535%, 9.719849%)" offset="0.367187"/><stop stop-opacity="1" stop-color="rgb(71.19751%, 23.498535%, 9.60083%)" offset="0.371094"/><stop stop-opacity="1" stop-color="rgb(70.889282%, 23.498535%, 9.481812%)" offset="0.375"/><stop stop-opacity="1" stop-color="rgb(70.579529%, 23.498535%, 9.362793%)" offset="0.378906"/><stop stop-opacity="1" stop-color="rgb(70.271301%, 23.498535%, 9.243774%)" offset="0.382812"/><stop stop-opacity="1" stop-color="rgb(69.963074%, 23.498535%, 9.124756%)" offset="0.386719"/><stop stop-opacity="1" stop-color="rgb(69.654846%, 23.498535%, 9.005737%)" offset="0.390625"/><stop stop-opacity="1" stop-color="rgb(69.345093%, 23.498535%, 8.886719%)" offset="0.394531"/><stop stop-opacity="1" stop-color="rgb(69.036865%, 23.498535%, 8.7677%)" offset="0.398438"/><stop stop-opacity="1" stop-color="rgb(68.727112%, 23.498535%, 8.648682%)" offset="0.402344"/><stop stop-opacity="1" stop-color="rgb(68.418884%, 23.498535%, 8.529663%)" offset="0.40625"/><stop stop-opacity="1" stop-color="rgb(68.110657%, 23.498535%, 8.410645%)" offset="0.410156"/><stop stop-opacity="1" stop-color="rgb(67.802429%, 23.498535%, 8.291626%)" offset="0.414062"/><stop stop-opacity="1" stop-color="rgb(67.492676%, 23.498535%, 8.172607%)" offset="0.417969"/><stop stop-opacity="1" stop-color="rgb(67.184448%, 23.498535%, 8.053589%)" offset="0.421875"/><stop stop-opacity="1" stop-color="rgb(66.874695%, 23.498535%, 7.93457%)" offset="0.425781"/><stop stop-opacity="1" stop-color="rgb(66.566467%, 23.498535%, 7.815552%)" offset="0.429687"/><stop stop-opacity="1" stop-color="rgb(66.256714%, 23.498535%, 7.695007%)" offset="0.433594"/><stop stop-opacity="1" stop-color="rgb(65.948486%, 23.498535%, 7.575989%)" offset="0.4375"/><stop stop-opacity="1" stop-color="rgb(65.640259%, 23.498535%, 7.45697%)" offset="0.441406"/><stop stop-opacity="1" stop-color="rgb(65.332031%, 23.498535%, 7.337952%)" offset="0.445312"/><stop stop-opacity="1" stop-color="rgb(65.022278%, 23.498535%, 7.218933%)" offset="0.449219"/><stop stop-opacity="1" stop-color="rgb(64.71405%, 23.498535%, 7.099915%)" offset="0.453125"/><stop stop-opacity="1" stop-color="rgb(64.404297%, 23.498535%, 6.980896%)" offset="0.457031"/><stop stop-opacity="1" stop-color="rgb(64.096069%, 23.498535%, 6.861877%)" offset="0.460937"/><stop stop-opacity="1" stop-color="rgb(63.787842%, 23.498535%, 6.742859%)" offset="0.464844"/><stop stop-opacity="1" stop-color="rgb(63.479614%, 23.498535%, 6.62384%)" offset="0.46875"/><stop stop-opacity="1" stop-color="rgb(63.169861%, 23.498535%, 6.504822%)" offset="0.472656"/><stop stop-opacity="1" stop-color="rgb(62.861633%, 23.498535%, 6.385803%)" offset="0.476562"/><stop stop-opacity="1" stop-color="rgb(62.55188%, 23.498535%, 6.266785%)" offset="0.480469"/><stop stop-opacity="1" stop-color="rgb(62.243652%, 23.498535%, 6.147766%)" offset="0.484375"/><stop stop-opacity="1" stop-color="rgb(61.935425%, 23.498535%, 6.028748%)" offset="0.488281"/><stop stop-opacity="1" stop-color="rgb(61.627197%, 23.498535%, 5.909729%)" offset="0.492187"/><stop stop-opacity="1" stop-color="rgb(61.317444%, 23.498535%, 5.79071%)" offset="0.496094"/><stop stop-opacity="1" stop-color="rgb(61.009216%, 23.498535%, 5.671692%)" offset="0.5"/><stop stop-opacity="1" stop-color="rgb(60.699463%, 23.498535%, 5.552673%)" offset="0.503906"/><stop stop-opacity="1" stop-color="rgb(60.391235%, 23.498535%, 5.433655%)" offset="0.507812"/><stop stop-opacity="1" stop-color="rgb(60.083008%, 23.498535%, 5.314636%)" offset="0.511719"/><stop stop-opacity="1" stop-color="rgb(59.77478%, 23.498535%, 5.195618%)" offset="0.515625"/><stop stop-opacity="1" stop-color="rgb(59.465027%, 23.498535%, 5.076599%)" offset="0.519531"/><stop stop-opacity="1" stop-color="rgb(59.156799%, 23.498535%, 4.957581%)" offset="0.523438"/><stop stop-opacity="1" stop-color="rgb(58.847046%, 23.498535%, 4.838562%)" offset="0.527344"/><stop stop-opacity="1" stop-color="rgb(58.538818%, 23.498535%, 4.719543%)" offset="0.53125"/><stop stop-opacity="1" stop-color="rgb(58.230591%, 23.498535%, 4.600525%)" offset="0.535156"/><stop stop-opacity="1" stop-color="rgb(57.922363%, 23.498535%, 4.481506%)" offset="0.539062"/><stop stop-opacity="1" stop-color="rgb(57.61261%, 23.498535%, 4.362488%)" offset="0.542969"/><stop stop-opacity="1" stop-color="rgb(57.304382%, 23.498535%, 4.243469%)" offset="0.546875"/><stop stop-opacity="1" stop-color="rgb(56.994629%, 23.498535%, 4.124451%)" offset="0.550781"/><stop stop-opacity="1" stop-color="rgb(56.686401%, 23.498535%, 4.005432%)" offset="0.554688"/><stop stop-opacity="1" stop-color="rgb(56.378174%, 23.498535%, 3.886414%)" offset="0.558594"/><stop stop-opacity="1" stop-color="rgb(56.069946%, 23.498535%, 3.767395%)" offset="0.5625"/><stop stop-opacity="1" stop-color="rgb(55.760193%, 23.498535%, 3.648376%)" offset="0.566406"/><stop stop-opacity="1" stop-color="rgb(55.451965%, 23.498535%, 3.529358%)" offset="0.570312"/><stop stop-opacity="1" stop-color="rgb(55.142212%, 23.498535%, 3.408813%)" offset="0.574219"/><stop stop-opacity="1" stop-color="rgb(54.833984%, 23.498535%, 3.289795%)" offset="0.578125"/><stop stop-opacity="1" stop-color="rgb(54.524231%, 23.498535%, 3.170776%)" offset="0.582031"/><stop stop-opacity="1" stop-color="rgb(54.216003%, 23.498535%, 3.051758%)" offset="0.585937"/><stop stop-opacity="1" stop-color="rgb(53.907776%, 23.498535%, 2.932739%)" offset="0.589844"/><stop stop-opacity="1" stop-color="rgb(53.599548%, 23.498535%, 2.813721%)" offset="0.59375"/><stop stop-opacity="1" stop-color="rgb(53.289795%, 23.498535%, 2.694702%)" offset="0.597656"/><stop stop-opacity="1" stop-color="rgb(52.981567%, 23.498535%, 2.575684%)" offset="0.601562"/><stop stop-opacity="1" stop-color="rgb(52.671814%, 23.498535%, 2.456665%)" offset="0.605469"/><stop stop-opacity="1" stop-color="rgb(52.363586%, 23.498535%, 2.337646%)" offset="0.609375"/><stop stop-opacity="1" stop-color="rgb(52.055359%, 23.498535%, 2.218628%)" offset="0.613281"/><stop stop-opacity="1" stop-color="rgb(51.747131%, 23.498535%, 2.099609%)" offset="0.617188"/><stop stop-opacity="1" stop-color="rgb(51.437378%, 23.498535%, 1.980591%)" offset="0.621094"/><stop stop-opacity="1" stop-color="rgb(51.12915%, 23.498535%, 1.861572%)" offset="0.625"/><stop stop-opacity="1" stop-color="rgb(50.819397%, 23.498535%, 1.742554%)" offset="0.628906"/><stop stop-opacity="1" stop-color="rgb(50.511169%, 23.498535%, 1.623535%)" offset="0.632812"/><stop stop-opacity="1" stop-color="rgb(50.202942%, 23.498535%, 1.504517%)" offset="0.636719"/><stop stop-opacity="1" stop-color="rgb(49.894714%, 23.498535%, 1.385498%)" offset="0.640625"/><stop stop-opacity="1" stop-color="rgb(49.584961%, 23.498535%, 1.266479%)" offset="0.644531"/><stop stop-opacity="1" stop-color="rgb(49.276733%, 23.498535%, 1.147461%)" offset="0.648438"/><stop stop-opacity="1" stop-color="rgb(48.96698%, 23.498535%, 1.028442%)" offset="0.652344"/><stop stop-opacity="1" stop-color="rgb(48.658752%, 23.498535%, 0.909424%)" offset="0.65625"/><stop stop-opacity="1" stop-color="rgb(48.350525%, 23.498535%, 0.790405%)" offset="0.660156"/><stop stop-opacity="1" stop-color="rgb(48.042297%, 23.498535%, 0.671387%)" offset="0.664062"/><stop stop-opacity="1" stop-color="rgb(47.732544%, 23.498535%, 0.552368%)" offset="0.667969"/><stop stop-opacity="1" stop-color="rgb(47.424316%, 23.498535%, 0.43335%)" offset="0.671875"/><stop stop-opacity="1" stop-color="rgb(47.114563%, 23.498535%, 0.314331%)" offset="0.675781"/><stop stop-opacity="1" stop-color="rgb(46.806335%, 23.498535%, 0.195312%)" offset="0.679688"/><stop stop-opacity="1" stop-color="rgb(46.55304%, 23.498535%, 0.0976562%)" offset="0.683594"/><stop stop-opacity="1" stop-color="rgb(46.299744%, 23.498535%, 0%)" offset="0.6875"/><stop stop-opacity="1" stop-color="rgb(46.299744%, 23.498535%, 0%)" offset="0.75"/><stop stop-opacity="1" stop-color="rgb(46.299744%, 23.498535%, 0%)" offset="1"/></linearGradient></defs><g clip-path="url(#8966c1a88f)"><g clip-path="url(#0b572a7f79)"><g clip-path="url(#c632f30452)"><g clip-path="url(#44a23f335e)"><path fill="url(#9a23dbe3bb)" d="M 62.796875 155.132812 L 136.109375 313.089844 L 307.445312 233.570312 L 234.136719 75.613281 Z M 62.796875 155.132812 " fill-rule="nonzero"/></g></g></g></g></svg>